<?xml version="1.0" encoding="UTF-8"?>
<!-- Generator: visioncortex VTracer 0.6.3 -->
<svg version="1.1" xmlns="http://www.w3.org/2000/svg" width="486" height="265">
<path d="M0 0 C1.87 0.54 1.87 0.54 3.78 1.09 C8.19 2.47 12.56 3.99 16.93 5.49 C29.68 9.85 41.58 13.14 55.06 13.83 C70.48 14.65 83.88 17.54 98.54 22.33 C104.55 24.26 110.59 26.06 116.65 27.84 C118.63 28.42 120.6 29.02 122.57 29.62 C129.07 31.54 135.18 32.97 141.96 33.31 C145.33 33.6 147.46 34.51 150.19 36.5 C153.33 40.71 154.94 44.02 154.64 49.46 C153.17 56.14 148.02 61 143.19 65.5 C144.49 70.07 146.26 73.34 149.12 77.12 C149.81 78.05 150.5 78.97 151.21 79.91 C152.42 81.5 153.64 83.07 154.89 84.62 C157.63 88.58 157.49 92.81 156.68 97.37 C155.55 102.05 154.19 106.56 152.5 111.06 C149.29 120.56 151.74 130.35 153.69 139.88 C157.13 158.06 159.67 174.86 148.92 190.93 C147.38 193.19 145.8 195.39 144.18 197.59 C141.86 200.97 140.23 203.8 140.12 207.94 C142.09 212.67 146.72 215.37 150.69 218.44 C152.19 220.5 152.19 220.5 152.38 223.56 C151.08 229.87 146.25 237.52 141.19 241.5 C138.95 242.46 136.67 243.33 134.38 244.12 C133.17 244.55 131.97 244.98 130.73 245.41 C125.03 247.16 119.75 247.63 113.79 247.66 C113.08 247.67 112.36 247.67 111.62 247.68 C109.25 247.69 106.88 247.7 104.52 247.7 C103.69 247.71 102.87 247.71 102.02 247.71 C97.63 247.73 93.24 247.74 88.85 247.74 C85.29 247.74 81.73 247.76 78.18 247.78 C55.85 247.92 33.89 247.2 11.68 244.86 C7.02 244.38 2.35 243.95 -2.33 243.55 C-3.07 243.49 -3.8 243.42 -4.57 243.36 C-20.12 242.02 -35.58 241.22 -51.19 241.25 C-52.34 241.25 -52.34 241.25 -53.52 241.25 C-61.29 241.28 -69.01 241.48 -76.76 242.02 C-89.73 242.9 -102.75 242.53 -115.74 242.4 C-133.94 242.24 -151.29 242.67 -169 247.25 C-170.56 247.64 -170.56 247.64 -172.15 248.03 C-180.55 250.13 -188.93 252.32 -197.29 254.58 C-215.2 259.37 -233.2 257.72 -251.45 255.79 C-264.99 254.36 -278.3 253.47 -291.81 255.5 C-302.74 256.25 -311.43 254.85 -320.22 248.1 C-323.13 245.18 -323.77 242.9 -324.19 238.81 C-323.79 222.68 -317.14 209.38 -307.9 196.58 C-303.88 190.83 -303.88 190.83 -302.91 184.08 C-303.9 180.15 -305.41 176.79 -307.31 173.25 C-308.04 171.85 -308.76 170.45 -309.48 169.05 C-309.86 168.31 -310.24 167.58 -310.63 166.82 C-312.71 162.74 -314.71 158.63 -316.69 154.5 C-317.07 153.72 -317.45 152.95 -317.84 152.15 C-325.18 136.81 -321.46 123.94 -317.98 107.77 C-315.69 96.78 -313.99 86.11 -315.75 74.94 C-315.94 73.48 -316.13 72.03 -316.31 70.58 C-316.4 69.88 -316.49 69.19 -316.58 68.47 C-317.65 59.47 -316.8 53.14 -312.91 44.9 C-311.67 42.64 -311.67 42.64 -311.81 40.5 C-313.3 39.63 -313.3 39.63 -314.81 38.75 C-317.81 36.5 -317.81 36.5 -318.21 33.71 C-317.74 29.91 -316.56 27.99 -314.38 24.88 C-311.07 20.11 -309.57 17.21 -310.06 11.44 C-309.81 7.5 -309.81 7.5 -307.75 5.56 C-300.36 2.89 -294.93 3.47 -287.81 6.5 C-281.1 10.07 -277.07 15.8 -272.79 21.89 C-270.9 24.68 -270.9 24.68 -267.81 26.5 C-257.05 27.74 -245.89 25.53 -235.25 24.06 C-218.72 21.82 -202.48 20.37 -185.79 19.89 C-179.01 19.7 -179.01 19.7 -172.27 18.97 C-161.88 17.56 -152.59 18.89 -142.5 21.44 C-123.63 25.89 -108.19 26.86 -89.88 19.44 C-71.24 12.2 -52.15 6.47 -32.81 1.44 C-31.7 1.14 -30.58 0.84 -29.44 0.53 C-19.67 -1.92 -9.79 -2.86 0 0 Z " fill="#FDA500" transform="translate(325.8125,4.5)"/>
<path d="M0 0 C4.34 1 6.73 3.72 9.27 7.24 C12.84 13.62 14.71 18.37 15.25 25.59 C15.53 30.31 15.53 30.31 17.82 34.19 C19.73 35.22 19.73 35.22 21.86 35.75 C24.47 36.58 26.59 37.76 28.98 39.07 C36.81 42.66 44.81 42.26 53.23 42.24 C54.95 42.25 56.66 42.27 58.37 42.28 C62.83 42.32 67.3 42.33 71.77 42.34 C76.34 42.35 80.91 42.38 85.48 42.42 C94.43 42.48 103.37 42.52 112.32 42.53 C112.32 50.78 112.32 59.03 112.32 67.53 C113.97 67.86 115.62 68.19 117.32 68.53 C121.47 72.03 122.88 74.31 123.59 79.54 C124.1 90.18 118 97.38 111.21 104.99 C107.79 109.58 108.14 114.61 107.88 120.16 C107.53 126.74 106.72 133.08 105.32 139.53 C104.66 139.53 104 139.53 103.32 139.53 C103.24 137.65 103.24 137.65 103.17 135.73 C103.09 134.08 103.02 132.43 102.94 130.78 C102.91 129.96 102.88 129.13 102.85 128.28 C102.81 127.48 102.77 126.68 102.73 125.86 C102.7 125.13 102.67 124.39 102.64 123.64 C102.28 121.27 101.42 119.64 100.32 117.53 C99.68 112.24 99.49 107.26 101.82 102.41 C102.64 101.46 103.47 100.51 104.32 99.53 C105.7 97.83 107.07 96.12 108.44 94.41 C109.12 93.58 109.81 92.75 110.51 91.9 C113.54 87.93 114.59 85.37 114.5 80.34 C114.5 79.46 114.49 78.58 114.48 77.68 C114.55 75.55 114.55 75.55 113.32 74.53 C112.82 76.51 112.82 76.51 112.32 78.53 C98.46 78.53 84.6 78.53 70.32 78.53 C70.32 115.49 70.32 152.45 70.32 190.53 C56.46 190.53 42.6 190.53 28.32 190.53 C28.32 153.9 28.32 117.27 28.32 79.53 C14.46 79.53 0.6 79.53 -13.68 79.53 C-13.68 67.32 -13.68 55.11 -13.68 42.53 C-1.31 42.04 -1.31 42.04 11.32 41.53 C10.33 40.21 9.34 38.89 8.32 37.53 C6.44 33.04 5.42 28.28 4.6 23.5 C4.48 22.79 4.36 22.09 4.23 21.36 C4 19.96 3.78 18.56 3.58 17.15 C2.84 12.6 1.62 9.78 -1.68 6.53 C-4.35 6.11 -4.35 6.11 -6.68 6.53 C-7.01 7.85 -7.34 9.17 -7.68 10.53 C-8.67 10.2 -9.66 9.87 -10.68 9.53 C-11.03 6.42 -10.92 4.91 -9.25 2.22 C-6.02 0.09 -3.79 0.05 0 0 Z " fill="#9A4620" transform="translate(341.68359375,28.46875)"/>
<path d="M0 0 C41.25 0 82.5 0 125 0 C125 11.88 125 23.76 125 36 C111.14 36 97.28 36 83 36 C83.41 52.08 83.41 52.08 91.73 63.44 C95.33 67.32 98.66 71.39 102 75.5 C102.55 76.16 103.1 76.82 103.67 77.5 C108.27 83.05 111.7 88.02 111.41 95.44 C109.96 104.49 105.45 111.68 99 118 C97.02 117.5 97.02 117.5 95 117 C95.53 112.07 97.81 108.76 100.5 104.75 C100.92 104.11 101.33 103.48 101.76 102.82 C104.8 98.2 104.8 98.2 106 97 C107.07 90.83 104.83 87.31 101.41 82.25 C96.99 76.17 92.14 70.4 87.31 64.63 C86.12 63.15 85.05 61.58 84 60 C83.67 88.71 83.34 117.42 83 147 C69.47 147 55.94 147 42 147 C42 110.37 42 73.74 42 36 C28.8 36 15.6 36 2 36 C2.66 37.32 3.32 38.64 4 40 C5.57 52.41 0.98 63.89 -4 75 C-4.66 75 -5.32 75 -6 75 C-5.86 73.58 -5.71 72.17 -5.56 70.75 C-5.48 69.96 -5.4 69.17 -5.32 68.36 C-5 66 -5 66 -4.5 64.22 C-3.89 61.5 -3.78 58.92 -3.68 56.14 C-3.64 55.03 -3.6 53.91 -3.56 52.76 C-3.52 51.6 -3.48 50.44 -3.44 49.25 C-3.39 48.08 -3.35 46.9 -3.31 45.69 C-3.2 42.79 -3.1 39.9 -3 37 C-3.79 36.7 -4.57 36.39 -5.38 36.08 C-9.46 34.4 -9.46 34.4 -11 32 C-10.69 28.81 -10.69 28.81 -10 26 C-5.31 26.52 -4.87 28.13 -1 32 C-0.67 21.44 -0.34 10.88 0 0 Z " fill="#994520" transform="translate(46,71)"/>
<path d="M0 0 C1.87 0.54 1.87 0.54 3.78 1.09 C8.19 2.47 12.56 3.99 16.93 5.49 C29.68 9.85 41.58 13.14 55.06 13.83 C70.48 14.65 83.88 17.54 98.54 22.33 C104.55 24.26 110.59 26.06 116.65 27.84 C118.63 28.42 120.6 29.02 122.57 29.62 C129.07 31.54 135.18 32.97 141.96 33.31 C145.33 33.6 147.46 34.51 150.19 36.5 C153.33 40.71 154.94 44.02 154.64 49.46 C153.17 56.14 148.02 61 143.19 65.5 C144.49 70.07 146.26 73.34 149.12 77.12 C149.81 78.05 150.5 78.97 151.21 79.91 C152.42 81.5 153.64 83.07 154.89 84.62 C157.63 88.58 157.49 92.81 156.68 97.37 C155.55 102.05 154.19 106.56 152.5 111.06 C149.29 120.56 151.74 130.35 153.69 139.88 C157.13 158.06 159.67 174.86 148.92 190.93 C147.38 193.19 145.8 195.39 144.18 197.59 C141.86 200.97 140.23 203.8 140.12 207.94 C142.09 212.67 146.72 215.37 150.69 218.44 C152.19 220.5 152.19 220.5 152.38 223.56 C151.08 229.87 146.25 237.52 141.19 241.5 C138.95 242.46 136.67 243.33 134.38 244.12 C133.17 244.55 131.97 244.98 130.73 245.41 C125.03 247.16 119.75 247.63 113.79 247.66 C113.08 247.67 112.36 247.67 111.62 247.68 C109.25 247.69 106.88 247.7 104.52 247.7 C103.69 247.71 102.87 247.71 102.02 247.71 C97.63 247.73 93.24 247.74 88.85 247.74 C85.29 247.74 81.73 247.76 78.18 247.78 C55.85 247.92 33.89 247.2 11.68 244.86 C7.02 244.38 2.35 243.95 -2.33 243.55 C-3.07 243.49 -3.8 243.42 -4.57 243.36 C-20.12 242.02 -35.58 241.22 -51.19 241.25 C-52.34 241.25 -52.34 241.25 -53.52 241.25 C-61.29 241.28 -69.01 241.48 -76.76 242.02 C-89.73 242.9 -102.75 242.53 -115.74 242.4 C-133.94 242.24 -151.29 242.67 -169 247.25 C-170.56 247.64 -170.56 247.64 -172.15 248.03 C-180.55 250.13 -188.93 252.32 -197.29 254.58 C-215.2 259.37 -233.2 257.72 -251.45 255.79 C-264.99 254.36 -278.3 253.47 -291.81 255.5 C-302.74 256.25 -311.43 254.85 -320.22 248.1 C-323.13 245.18 -323.77 242.9 -324.19 238.81 C-323.79 222.68 -317.14 209.38 -307.9 196.58 C-303.88 190.83 -303.88 190.83 -302.91 184.08 C-303.9 180.15 -305.41 176.79 -307.31 173.25 C-308.04 171.85 -308.76 170.45 -309.48 169.05 C-309.86 168.31 -310.24 167.58 -310.63 166.82 C-312.71 162.74 -314.71 158.63 -316.69 154.5 C-317.07 153.72 -317.45 152.95 -317.84 152.15 C-325.18 136.81 -321.46 123.94 -317.98 107.77 C-315.69 96.78 -313.99 86.11 -315.75 74.94 C-315.94 73.48 -316.13 72.03 -316.31 70.58 C-316.4 69.88 -316.49 69.19 -316.58 68.47 C-317.65 59.47 -316.8 53.14 -312.91 44.9 C-311.67 42.64 -311.67 42.64 -311.81 40.5 C-313.3 39.63 -313.3 39.63 -314.81 38.75 C-317.81 36.5 -317.81 36.5 -318.21 33.71 C-317.74 29.91 -316.56 27.99 -314.38 24.88 C-311.07 20.11 -309.57 17.21 -310.06 11.44 C-309.81 7.5 -309.81 7.5 -307.75 5.56 C-300.36 2.89 -294.93 3.47 -287.81 6.5 C-281.1 10.07 -277.07 15.8 -272.79 21.89 C-270.9 24.68 -270.9 24.68 -267.81 26.5 C-257.05 27.74 -245.89 25.53 -235.25 24.06 C-218.72 21.82 -202.48 20.37 -185.79 19.89 C-179.01 19.7 -179.01 19.7 -172.27 18.97 C-161.88 17.56 -152.59 18.89 -142.5 21.44 C-123.63 25.89 -108.19 26.86 -89.88 19.44 C-71.24 12.2 -52.15 6.47 -32.81 1.44 C-31.7 1.14 -30.58 0.84 -29.44 0.53 C-19.67 -1.92 -9.79 -2.86 0 0 Z M-38.81 6.5 C-39.98 6.84 -39.98 6.84 -41.18 7.18 C-45.37 8.4 -49.55 9.65 -53.72 10.94 C-57.04 11.97 -60.37 12.95 -63.72 13.9 C-74.13 16.88 -84.18 20.44 -94.21 24.52 C-95.13 24.89 -96.05 25.26 -97 25.64 C-98.21 26.14 -98.21 26.14 -99.45 26.66 C-113.93 31.83 -130.2 28.28 -144.55 24.65 C-153.81 22.35 -161.79 21.85 -171.32 22.73 C-179.9 23.5 -188.46 23.82 -197.06 24.06 C-198.5 24.11 -199.94 24.15 -201.38 24.19 C-204.86 24.3 -208.33 24.4 -211.81 24.5 C-211.81 25.16 -211.81 25.82 -211.81 26.5 C-210.64 27 -209.46 27.49 -208.25 28 C-201.67 31.28 -197.22 37.08 -193.81 43.5 C-190.51 41.95 -187.54 40.06 -184.5 38.06 C-177.06 33.34 -170.89 29.98 -161.81 31.5 C-156.71 33.63 -152.78 36.82 -149.81 41.5 C-147.95 46.1 -147.59 49.93 -147.69 54.88 C-147.71 56.12 -147.72 57.37 -147.74 58.65 C-147.77 59.59 -147.79 60.53 -147.81 61.5 C-147.98 60.41 -148.15 59.33 -148.33 58.21 C-148.57 56.77 -148.82 55.32 -149.06 53.88 C-149.17 53.16 -149.28 52.45 -149.39 51.71 C-150.48 45.51 -152.87 40.48 -158.06 36.62 C-161.89 34.11 -165.34 33.65 -169.81 34.5 C-177.04 36.44 -182.53 40.21 -188.37 44.79 C-190.63 46.37 -192.12 47.08 -194.81 47.5 C-195.22 46.79 -195.64 46.07 -196.06 45.34 C-201.46 36.39 -206.74 30.02 -216.81 26.5 C-220.56 26.24 -220.56 26.24 -224.5 26.62 C-225.23 26.68 -225.95 26.73 -226.7 26.78 C-232.47 27.26 -238.16 28.14 -243.88 29.06 C-266.35 32.66 -266.35 32.66 -272.52 28.81 C-274.91 26.4 -276.7 23.97 -278.56 21.12 C-282.74 15.19 -287.38 11.71 -293.81 8.5 C-295.85 8.43 -297.9 8.42 -299.94 8.44 C-301.03 8.45 -302.13 8.46 -303.26 8.46 C-304.1 8.48 -304.94 8.49 -305.81 8.5 C-305.84 9.2 -305.86 9.9 -305.89 10.62 C-306.34 18.22 -307.82 23.79 -312.62 29.75 C-314.01 31.44 -314.01 31.44 -313.81 33.62 C-312.39 36.29 -310.62 36.64 -307.81 37.5 C-309.36 46.72 -309.36 46.72 -311.44 50.31 C-314.04 56.34 -313.27 63.39 -312.32 69.79 C-310.09 85.99 -312.29 101.49 -315.68 117.32 C-318.01 128.43 -319.59 137.58 -314.44 148 C-314.09 148.75 -313.73 149.5 -313.37 150.27 C-309.8 157.8 -305.87 165.16 -301.91 172.49 C-298.93 178.15 -296.7 182.91 -297.81 189.5 C-299.01 192.34 -300.63 194.78 -302.38 197.31 C-303.06 198.35 -303.06 198.35 -303.75 199.41 C-305.09 201.45 -306.45 203.48 -307.81 205.5 C-312.18 212.03 -315.81 217.87 -317.81 225.5 C-318.02 226.18 -318.22 226.86 -318.43 227.55 C-320.04 233.21 -321.25 238.86 -318.31 244.25 C-310.92 250.9 -304.11 251.05 -294.56 250.89 C-293.31 250.88 -292.05 250.88 -290.76 250.87 C-287.45 250.85 -284.15 250.82 -280.84 250.77 C-277.45 250.73 -274.07 250.72 -270.68 250.7 C-264.06 250.65 -257.44 250.58 -250.81 250.5 C-251.24 250 -251.66 249.49 -252.1 248.97 C-255.57 244.66 -257.56 241.86 -257.44 236.13 C-257.44 234.98 -257.45 233.83 -257.45 232.64 C-257.43 231.46 -257.4 230.28 -257.38 229.06 C-257.21 220.18 -257.49 213.86 -262.81 206.5 C-263.47 206.5 -264.13 206.5 -264.81 206.5 C-265.08 205.64 -265.36 204.78 -265.64 203.89 C-266.79 200.56 -268.14 197.44 -269.62 194.25 C-270.15 193.11 -270.67 191.98 -271.21 190.81 C-272.61 187.91 -274.13 185.12 -275.69 182.31 C-278.24 177.36 -278.34 172.98 -277.81 167.5 C-277.15 167.5 -276.49 167.5 -275.81 167.5 C-275.77 168.78 -275.73 170.06 -275.69 171.38 C-274.46 181.55 -266.86 189.16 -260.48 196.7 C-255.47 202.68 -251.13 207.95 -251.47 216.06 C-251.85 218.75 -252.53 221.21 -253.31 223.81 C-255.03 229.71 -255.93 235.39 -254.81 241.5 C-253.48 243.74 -252.12 245.33 -250.22 247.1 C-248.81 248.5 -248.81 248.5 -247.81 251.5 C-229.4 254.35 -209.68 253.81 -191.81 248.5 C-190.33 248.08 -188.84 247.67 -187.36 247.26 C-185.09 246.63 -182.83 246.01 -180.57 245.37 C-175.24 243.86 -169.9 242.49 -164.5 241.25 C-163.82 241.09 -163.14 240.92 -162.44 240.76 C-152.15 238.45 -141.46 238.36 -130.96 238.18 C-129.85 238.16 -128.73 238.14 -127.59 238.12 C-123.93 238.05 -120.28 237.99 -116.62 237.94 C-115.36 237.92 -114.09 237.9 -112.78 237.88 C-103.12 237.73 -93.47 237.6 -83.81 237.5 C-83.1 237.49 -82.38 237.48 -81.65 237.48 C-72.21 237.38 -62.78 237.3 -53.34 237.27 C-50.58 237.26 -47.83 237.24 -45.07 237.22 C-23.72 237.05 -2.79 238.31 18.39 241.04 C30.11 242.51 41.66 242.81 53.46 242.8 C55.45 242.8 57.44 242.81 59.43 242.81 C63.56 242.82 67.69 242.82 71.82 242.82 C77.09 242.81 82.35 242.83 87.62 242.85 C91.71 242.86 95.8 242.87 99.9 242.86 C101.84 242.86 103.78 242.87 105.72 242.88 C115.66 242.92 124.72 242.91 134.19 239.5 C135.43 239.17 136.66 238.84 137.94 238.5 C142.9 235.45 145.91 230.84 148.19 225.5 C148.23 222.81 148.23 222.81 147.19 220.5 C145.7 219.03 145.7 219.03 143.81 218 C140.57 215.85 138.66 214.22 137.19 210.5 C135.76 202.36 139.91 197.17 144.19 190.5 C145.3 188.69 146.4 186.88 147.5 185.06 C147.97 184.3 148.44 183.54 148.93 182.75 C155.58 170.86 152.69 151.35 149.16 138.52 C148.8 137.27 148.44 136.03 148.06 134.75 C145.28 125.02 144.42 115.68 149.19 106.5 C152.25 98.16 152.25 98.16 152.19 89.5 C149.78 85.62 147.03 82.07 144.19 78.5 C140.95 74.35 139.23 70.97 138.82 65.74 C139.53 61.44 143.03 59.21 146.19 56.5 C149.37 52.6 149.51 49.44 149.49 44.59 C149.3 42.2 149.3 42.2 147.19 39.5 C144.78 38.58 144.78 38.58 141.89 37.99 C140.78 37.73 139.67 37.47 138.53 37.2 C137.32 36.93 136.12 36.66 134.88 36.38 C124.43 33.89 114.18 31.1 103.94 27.88 C102.7 27.49 101.47 27.11 100.2 26.71 C90.56 23.69 90.56 23.69 85.9 21.89 C75.64 18.1 65.43 17.77 54.63 17.23 C44.7 16.72 35.69 15.45 26.19 12.5 C25.07 12.16 23.94 11.81 22.79 11.46 C18.5 10.07 14.27 8.54 10.06 6.94 C9.43 6.7 8.79 6.47 8.14 6.23 C6.79 5.72 5.44 5.2 4.11 4.65 C-9.88 -0.44 -24.97 2.48 -38.81 6.5 Z " fill="#9E4A1F" transform="translate(325.8125,4.5)"/>
<path d="M0 0 C0.33 0.99 0.66 1.98 1 3 C0.04 4.72 -0.92 6.43 -1.94 8.12 C-5.46 14.37 -6.15 21.68 -4.32 28.55 C-3.78 30.25 -3.23 31.94 -2.67 33.62 C-1.75 36.88 -1.78 39.64 -2 43 C-1.24 42.68 -0.49 42.36 0.29 42.03 C18.2 37.05 35.74 41.94 51.56 50.38 C53.05 51.24 54.53 52.11 56 53 C55.95 52.36 55.91 51.71 55.86 51.05 C55.3 37.01 60.59 24.93 70 14.62 C72.3 12.18 72.3 12.18 71.88 9.25 C71.04 7.01 71.04 7.01 70 5 C75.88 6.87 75.88 6.87 77 8 C77.4 12 77.51 14.24 75.24 17.63 C74.46 18.46 73.68 19.28 72.88 20.12 C63.01 31.64 60.78 41.98 61.75 56.78 C62.36 62.22 63.98 66.49 67.12 70.94 C67.93 72.1 67.93 72.1 68.76 73.28 C69.17 73.85 69.58 74.41 70 75 C71.32 74.34 72.64 73.68 74 73 C83.09 83.96 85.52 98.15 86 112 C89.47 103.59 89.47 103.59 93 95 C95.12 103.49 90.53 111.24 86.63 118.65 C84.04 123.67 82.34 128.73 80.82 134.16 C80.04 136.86 79.09 139.41 78 142 C74.9 140.64 73.09 139.17 70.88 136.62 C67.42 133.04 64.12 131.67 59.49 130.02 C49.94 126.11 44.24 118.3 40.19 109.19 C39.5 107.69 38.82 106.19 38.13 104.7 C37.78 103.93 37.43 103.16 37.07 102.37 C35.28 98.42 33.46 94.49 31.62 90.56 C31.12 89.47 31.12 89.47 30.61 88.36 C28.76 84.38 28.76 84.38 26 81 C14.49 81.8 5.2 91.75 -2 100 C-2.56 100.94 -3.11 101.87 -3.69 102.84 C-4.34 103.91 -4.34 103.91 -5 105 C-5.66 105 -6.32 105 -7 105 C-5.63 94.89 3.5 88.47 11.07 82.58 C16.58 78.4 19.95 76.26 27 77 C31.8 80.01 33.74 83.66 36.06 88.62 C36.41 89.33 36.75 90.04 37.1 90.77 C44 105.2 44 105.2 44 109 C44.99 109 45.98 109 47 109 C48.54 110.5 48.54 110.5 50.06 112.44 C52.17 115.16 52.17 115.16 55 117 C54.88 114.85 54.76 112.71 54.62 110.56 C54.52 108.77 54.52 108.77 54.41 106.94 C54.17 103.24 54.17 103.24 53.27 100.78 C52.5 98.41 51.99 96.51 52 94 C53.77 90.89 56.19 88.76 58.88 86.44 C59.55 85.81 60.23 85.18 60.93 84.54 C62.6 83 64.28 81.49 66 80 C64.2 76.36 62.23 72.84 60.22 69.32 C58.98 66.96 57.99 64.47 57 62 C51.39 67.61 45.78 73.22 40 79 C37.3 77.76 34.6 76.53 31.89 75.29 C30.94 74.86 29.98 74.44 29 74 C28.24 73.6 27.48 73.21 26.7 72.8 C23.4 71.82 20.81 72.14 17.41 72.43 C6.03 73.31 6.03 73.31 1.09 69.34 C-1.93 66.46 -4.51 63.33 -7 60 C-10.7 61.23 -11.62 63.01 -14 66 C-14.66 66 -15.32 66 -16 66 C-14.67 62.67 -13.33 59.33 -12 56 C-12.82 55.05 -13.65 54.1 -14.5 53.12 C-17 50.25 -17 50.25 -17 48 C-13.7 46.68 -10.4 45.36 -7 44 C-6.75 38.88 -6.89 34.82 -8.5 29.94 C-11.34 20.93 -9.9 16.06 -5.75 7.83 C-4.16 4.81 -2.62 2.23 0 0 Z " fill="#9C481F" transform="translate(234,40)"/>
<path d="M0 0 C3.07 1.36 5.12 2.9 7.44 5.31 C8.04 5.94 8.65 6.56 9.27 7.2 C9.84 7.8 10.41 8.39 11 9 C12.27 10.27 12.27 10.27 13.56 11.56 C17.78 15.78 17.78 15.78 22 20 C20.91 23.26 20.44 23.62 17.81 25.56 C11.39 30.87 7.87 37.98 6 46 C4.96 57.72 6.66 66.52 12 77 C16.12 76.38 19.36 75.01 23.06 73.12 C24.08 72.61 25.11 72.1 26.16 71.57 C28.63 70.2 30.8 68.76 33 67 C31.53 70.66 29.66 72.28 26.44 74.5 C25.63 75.07 24.83 75.63 24 76.22 C21.53 77.68 19.4 78.63 16.76 79.64 C10.81 82.21 6.84 86.61 2.44 91.25 C1.21 92.51 1.21 92.51 -0.04 93.8 C-2.04 95.85 -4.02 97.92 -6 100 C-14.63 96.04 -18.2 84.81 -21.74 76.55 C-27.68 59.81 -26.54 41.31 -19.34 25.16 C-14.99 16.07 -9.13 9.05 -2 2 C-1.34 1.34 -0.68 0.68 0 0 Z " fill="#9A4620" transform="translate(205,96)"/>
<path d="M0 0 C5.98 2.05 9.49 5.98 13.88 10.38 C14.67 11.14 15.47 11.91 16.29 12.7 C17.04 13.45 17.78 14.19 18.55 14.96 C19.58 15.98 19.58 15.98 20.63 17.02 C22 19 22 19 21.86 21.05 C17.2 31.65 3.69 38.74 -6.44 43.01 C-24.36 49.95 -43.35 50.41 -61.15 42.62 C-63.48 41.48 -65.75 40.29 -68 39 C-67.45 35.09 -65.7 33.41 -62.88 30.75 C-59.18 27.19 -55.74 23.53 -52.41 19.63 C-51.32 18.37 -50.17 17.17 -49 16 C-46.66 16.26 -44.32 16.61 -42 17 C-29.87 17.84 -19.17 17.41 -9.05 9.77 C-5.56 6.72 -2.57 3.86 0 0 Z " fill="#9A4620" transform="translate(282,172)"/>
<path d="M0 0 C3.07 -0.35 5.94 -0.49 9 0 C12.28 3.12 13.24 5.9 13.5 10.31 C13.11 18.35 9.16 24.14 4 30 C3.67 30.99 3.34 31.98 3 33 C4.16 32.9 4.16 32.9 5.35 32.79 C14.95 32.31 21.64 34.5 30 39 C30.66 39.66 31.32 40.32 32 41 C33.96 41.89 33.96 41.89 36.12 42.62 C36.85 42.89 37.57 43.15 38.32 43.41 C39.15 43.7 39.15 43.7 40 44 C40 44.66 40 45.32 40 46 C27.72 46.57 10.68 47.12 0 40 C-2.52 36.22 -2.4 34.49 -2 30 C-1.07 27.3 0.17 24.8 1.44 22.25 C4.47 15.82 6.11 10.21 6 3 C4.35 3 2.7 3 1 3 C0.67 2.01 0.34 1.02 0 0 Z " fill="#9F4B1E" transform="translate(419,194)"/>
<path d="M0 0 C7.93 -0.62 7.93 -0.62 12 1.75 C16.1 6.36 15.33 12.31 15.28 18.21 C14.58 27.62 10.59 36.37 7.05 45.03 C5.99 48.02 5.43 50.86 5 54 C5.89 54.23 6.77 54.45 7.69 54.69 C12.4 56.55 15 59.06 17.31 63.56 C18.34 68.7 18.15 73.78 18 79 C17.01 79 16.02 79 15 79 C14.79 78.29 14.58 77.57 14.37 76.84 C12.2 70.09 9.79 65.27 4 61 C3.07 60.63 2.14 60.26 1.19 59.88 C-1 59 -1 59 -2.17 56.86 C-4.36 49.33 -1.76 40.73 1.81 34 C4.22 29.99 6.93 26.51 10 23 C11.11 19.68 11.2 17.06 11.25 13.56 C11.28 12.43 11.3 11.3 11.33 10.13 C10.97 6.7 10.5 5.34 8 3 C5.97 2.31 5.97 2.31 3.81 2.25 C2.55 2.17 1.3 2.09 0 2 C0 1.34 0 0.68 0 0 Z " fill="#9F4B1E" transform="translate(329,142)"/>
<path d="M0 0 C1.36 0.53 2.73 1.06 4.09 1.6 C9.75 3.3 15.77 3.59 21.64 4.15 C23.3 4.35 24.96 4.62 26.61 4.92 C29.73 5.4 32.64 5.51 35.79 5.5 C36.9 5.49 38.01 5.49 39.15 5.49 C40.87 5.47 40.87 5.47 42.61 5.46 C43.78 5.46 44.94 5.45 46.14 5.45 C49.01 5.44 51.87 5.42 54.74 5.4 C53.74 7.4 53.74 7.4 50.91 8.47 C35.88 12.81 19.87 13.12 4.71 9.15 C-2.64 7.29 -12.19 5.32 -19.2 8.9 C-21.87 12.14 -23.59 15.56 -25.26 19.4 C-25.92 19.4 -26.58 19.4 -27.26 19.4 C-26.99 13.32 -26.3 9.22 -22.26 4.4 C-15.74 -1.34 -8.52 -2.27 0 0 Z " fill="#9D491F" transform="translate(173.26171875,217.6015625)"/>
<path d="M0 0 C5.34 0.16 9.26 3.49 13 7 C15.45 10.2 17.31 13.7 19.2 17.25 C19.61 17.97 20.02 18.7 20.44 19.44 C20.79 20.1 21.14 20.75 21.5 21.43 C23.8 23.83 25.74 23.84 29 24 C31.87 23.34 31.87 23.34 34.75 22.06 C35.88 21.6 37 21.14 38.16 20.67 C41.73 19.14 45.25 17.54 48.78 15.94 C49.56 15.59 50.33 15.24 51.12 14.88 C51.89 14.53 52.66 14.18 53.45 13.82 C59.16 11.27 64.86 9.3 71 8 C62.85 16.68 52.1 21.21 41.19 25.5 C40.32 25.85 39.45 26.2 38.55 26.56 C33.12 28.61 27.83 30.08 22 29 C18.94 26.62 18.94 26.62 17 24 C17 23.34 17 22.68 17 22 C16.01 21.67 15.02 21.34 14 21 C12.88 19.88 11.76 18.74 10.67 17.58 C8.5 15.53 6.1 13.88 3.69 12.12 C-0.91 8.53 -0.91 8.53 -1.69 4.06 C-1 1 -1 1 0 0 Z " fill="#A04C1E" transform="translate(29,34)"/>
<path d="M0 0 C0.99 0 1.98 0 3 0 C4.8 2.12 4.8 2.12 6.75 5 C13.47 14.54 20.82 23.5 32 28 C34.65 28.32 34.65 28.32 37.44 28.25 C38.36 28.26 39.29 28.26 40.25 28.27 C43.16 27.98 45.35 27.21 48 26 C46.08 29.56 44.45 31.87 41 34 C35.27 35.18 30.11 34.51 25 31.69 C15.48 25.26 8.15 16.6 2 7 C1.34 6.01 0.68 5.02 0 4 C0 2.68 0 1.36 0 0 Z " fill="#A14D1E" transform="translate(396,31)"/>
<path d="M0 0 C0.33 0 0.66 0 1 0 C0.86 2.06 0.71 4.13 0.56 6.19 C0.48 7.34 0.4 8.48 0.32 9.67 C0.05 12.52 -0.38 15.21 -1 18 C-1.66 18 -2.32 18 -3 18 C-3 12.72 -3 7.44 -3 2 C-2.34 2.66 -1.68 3.32 -1 4 C-0.67 2.68 -0.34 1.36 0 0 Z " fill="#B05B19" transform="translate(448,150)"/>
<path d="M0 0 C3.81 3.29 5.23 6.4 7 11 C6.01 11.66 5.02 12.32 4 13 C1.79 10.79 0.13 9.07 -0.27 5.89 C-0.25 3.92 -0.13 1.96 0 0 Z " fill="#B66117" transform="translate(297,106)"/>
<path d="M0 0 C1.32 3.66 0.65 6.08 -0.44 9.75 C-0.72 10.73 -1.01 11.72 -1.31 12.73 C-1.54 13.48 -1.76 14.23 -2 15 C-2.99 15 -3.98 15 -5 15 C-1.92 4.44 -1.92 4.44 0 0 Z " fill="#B96416" transform="translate(327,135)"/>
<path d="M0 0 C0 0.99 0 1.98 0 3 C-2.41 5.04 -2.41 5.04 -5.5 7.19 C-6.52 7.9 -7.54 8.62 -8.59 9.36 C-9.39 9.9 -10.18 10.44 -11 11 C-12.32 10.34 -13.64 9.68 -15 9 C-14.17 8.6 -13.34 8.2 -12.48 7.79 C-11.39 7.26 -10.31 6.73 -9.19 6.19 C-8.11 5.67 -7.03 5.14 -5.92 4.61 C-3.43 3.24 -1.82 2.13 0 0 Z " fill="#B86316" transform="translate(237,163)"/>
<path d="M0 0 C-0.33 0.66 -0.66 1.32 -1 2 C-5.16 3.29 -9.02 2.92 -13.31 2.56 C-14.57 2.46 -15.82 2.36 -17.11 2.25 C-18.07 2.17 -19.02 2.09 -20 2 C-20 1.67 -20 1.34 -20 1 C-17.6 0.83 -15.21 0.66 -12.81 0.5 C-12.14 0.45 -11.47 0.4 -10.77 0.36 C-7.17 0.11 -3.61 -0.06 0 0 Z " fill="#BC6715" transform="translate(228,223)"/>
<path d="M0 0 C0.66 0 1.32 0 2 0 C2 1.98 2 3.96 2 6 C1.34 6 0.68 6 0 6 C-0.33 7.32 -0.66 8.64 -1 10 C-1.12 2.25 -1.12 2.25 0 0 Z " fill="#BB6615" transform="translate(48,172)"/>
<path d="M0 0 C0.33 1.32 0.66 2.64 1 4 C1.66 4.33 2.32 4.66 3 5 C2.34 6.32 1.68 7.64 1 9 C0.34 9 -0.32 9 -1 9 C-0.67 6.03 -0.34 3.06 0 0 Z " fill="#B76117" transform="translate(147,228)"/>
</svg>
